# xmcd
#
# Track frame offsets: 
#        150
#        4330
#        13052
#        27662
#        37557
#        47565
#        50742
#        54752
#        65202
#        80005
#        95132
#        102162
#        105325
#        108875
#        120452
#        134120
#        145655
#        153975
#        156372
#        159847
#        171407
#        183832
#        192295
#        206580
#
# Disc length: 2795 seconds
#
# Revision: 0
# Processed by: cddbd v1.5.2PL0 Copyright (c) Steve Scherf et al.
# Submitted via: ExactAudioCopy v0.99pb4
#
DISCID=430ae918
DTITLE=Jim Reeves - Radio Days Volume 2 - Disc 1
DYEAR=2001
DGENRE=Country
TTITLE0=Stay A Little Longer - Intro
TTITLE1=Everywhere You Go
TTITLE2=If Heartache Is The Fashion
TTITLE3=While You're Cheating On Me (Louvin Brothers)
TTITLE4=Home
TTITLE5=Outro
TTITLE6=Stay A Little Longer - Intro
TTITLE7=Dear Hearts And Gentle People
TTITLE8=How's The World Treating You
TTITLE9=The Long Black Veil (Johnny Rivers)
TTITLE10=I'm Beginning To Forget You
TTITLE11=Outro
TTITLE12=Stay A Little Longer - Intro
TTITLE13=In A Mansion Stands My Love
TTITLE14=If Heartache Is The Fashion
TTITLE15=Grief In My Heart (Carl Butler)
TTITLE16=I'm Beginning To Forget You
TTITLE17=Outro
TTITLE18=Stay A Little Longer - Intro
TTITLE19=In A Mansion Stands My Love
TTITLE20=I'm Gettin' Better
TTITLE21=He Lifted Me (The Jordanaires)
TTITLE22=Four Walls
TTITLE23=Outro
EXTD=
EXTT0=
EXTT1=
EXTT2=
EXTT3=
EXTT4=
EXTT5=
EXTT6=
EXTT7=
EXTT8=
EXTT9=
EXTT10=
EXTT11=
EXTT12=
EXTT13=
EXTT14=
EXTT15=
EXTT16=
EXTT17=
EXTT18=
EXTT19=
EXTT20=
EXTT21=
EXTT22=
EXTT23=
PLAYORDER=
